<?xml version="1.0" standalone="no"?><!DOCTYPE svg PUBLIC "-//W3C//DTD SVG 1.1//EN" "http://www.w3.org/Graphics/SVG/1.1/DTD/svg11.dtd"><svg t="1747736202912" class="icon" viewBox="0 0 1024 1024" version="1.1" xmlns="http://www.w3.org/2000/svg" p-id="12054" xmlns:xlink="http://www.w3.org/1999/xlink" width="200" height="200"><path d="M126.592 507.712c0 42.624 4.224 89.408 19.2 127.744h289.92c10.624-42.56 14.912-78.72 14.912-123.456 0-40.448-4.288-83.008-14.976-123.456H141.504c-8.576 38.336-14.912 74.496-14.912 119.168z m581.952-119.168h-219.52c10.624 36.16 14.848 78.72 14.848 123.456 0 44.672-4.224 78.72-14.912 123.456h219.584c68.224 0 121.536-53.184 121.536-123.456s-53.312-123.456-121.536-123.456z m-537.216-57.472h249.408c-29.824-63.872-63.936-123.456-102.336-170.24-63.936 42.56-119.36 100.032-147.072 170.24z m579.84 0c64 0 117.248-25.6 155.648-68.096-76.8-108.544-206.784-176.64-353.92-176.64-72.448 0-132.16 16.96-191.808 48.896 49.024 53.248 83.136 121.344 108.672 191.616l281.408 4.224z m-586.24 361.856h249.408c-25.6 63.872-57.536 121.344-102.336 163.84a409.28 409.28 0 0 1-147.072-163.84z m588.416 0c63.936 0 117.248 25.6 155.584 68.096-78.848 106.432-215.296 176.64-355.968 176.64-72.512 0-132.224-21.248-191.872-46.784 49.024-53.184 83.136-123.456 108.672-191.552l283.52-6.4z" fill="#3C78FF" p-id="12055"></path></svg>