<?xml version="1.0" standalone="no"?><!DOCTYPE svg PUBLIC "-//W3C//DTD SVG 1.1//EN" "http://www.w3.org/Graphics/SVG/1.1/DTD/svg11.dtd"><svg t="1747736154107" class="icon" viewBox="0 0 6806 1024" version="1.1" xmlns="http://www.w3.org/2000/svg" p-id="7483" xmlns:xlink="http://www.w3.org/1999/xlink" width="1329.296875" height="200"><path d="M2207.93 17.328h381.223v989.05H2207.93z m-462.086 13.645L972.015 446.182a38.465 38.465 0 0 1-35.828 0L162.358 30.973a117.53 117.53 0 0 0-55.291-13.645h-0.963A100.454 100.454 0 0 0 0 110.541v894.708h380.887V579.367a38.424 38.424 0 0 1 57.97-28.546l433.667 233.053a152.104 152.104 0 0 0 139.63 1.172l457.61-235.815a38.382 38.382 0 0 1 57.384 28.88v427.138h380.886V110.54a100.454 100.454 0 0 0-105.936-93.213h-0.963a117.53 117.53 0 0 0-55.291 13.645z m2744.228-13.645H4103.45v450.158a38.214 38.214 0 0 1-56.003 29.55L3045.505 28.254a118.2 118.2 0 0 0-49.85-10.925h-0.67a100.454 100.454 0 0 0-106.104 93.213v894.75h383.524V555.634a38.256 38.256 0 0 1 55.961-29.592l1005.877 468.784a117.74 117.74 0 0 0 49.724 10.882 100.454 100.454 0 0 0 106.105-93.213z m299.728 989.05V17.329h175.418v989.05zM5997.59 1024c-471.882 0-806.644-196.722-806.644-511.98C5190.945 198.439 5527.716 0 5997.59 0s808.652 196.722 808.652 512.02S6475.497 1024 5997.59 1024z m0-892.908c-350.877 0-621.14 134.65-621.14 380.887 0 248.037 270.263 380.887 621.14 380.887s623.106-132.85 623.106-380.887c0-246.237-272.23-380.887-623.106-380.887z" fill="#C72C48" p-id="7484"></path></svg>