<?xml version="1.0" standalone="no"?><!DOCTYPE svg PUBLIC "-//W3C//DTD SVG 1.1//EN" "http://www.w3.org/Graphics/SVG/1.1/DTD/svg11.dtd"><svg t="1747736238466" class="icon" viewBox="0 0 1024 1024" version="1.1" xmlns="http://www.w3.org/2000/svg" p-id="13081" xmlns:xlink="http://www.w3.org/1999/xlink" width="200" height="200"><path d="M42.666667 42.666667l467.626666 938.666666L981.333333 42.666667H42.666667z m523.306666 187.733333h54.442667v54.442667h-54.442667V230.4z m-163.456 219.008h55.04l-0.597333-54.912H402.517333v54.912z m55.04-81.664h-55.04V312.832h54.442667l0.597333 54.912z m-55.04-81.664h55.04l-0.597333-54.912H402.517333v54.912z m136.746667 244.906667h-54.357333v-54.954667h54.357333v54.954667z m-54.357333-81.664h54.357333V394.496h-54.357333v54.826667z m54.357333-81.664h-54.357333V312.832h54.357333v54.826667z m-54.357333-81.664h54.357333V231.168h-54.357333v54.826667z m81.066666 27.178666h54.442667v54.4h-54.442667V313.173333z m0 81.322667v54.784l55.552 0.128V394.496h-55.552z" fill="#f4ea2a" p-id="13082"></path></svg>